<?xml version="1.0" encoding="utf-8"?>
<!-- Generator: Adobe Illustrator 19.1.0, SVG Export Plug-In . SVG Version: 6.00 Build 0)  -->
<svg version="1.1" id="Layer_1" xmlns="http://www.w3.org/2000/svg" xmlns:xlink="http://www.w3.org/1999/xlink" x="0px" y="0px"
	 viewBox="0 0 507.8 77.3" style="enable-background:new 0 0 507.8 77.3;" xml:space="preserve">
<style type="text/css">
	.st0{fill:#363636;}
</style>
<g>
	<path class="st0" d="M19.3,77.3C8.7,77.3,0,68.7,0,58h19.3V77.3z"/>
	<path class="st0" d="M38.7,77.3C49.4,77.3,58,68.7,58,58H38.7V77.3z"/>
	<path class="st0" d="M58,0c10.7,0,19.3,8.7,19.3,19.3H58V0z"/>
	<path class="st0" d="M58,38.7c10.7,0,19.3,8.7,19.3,19.3H58V38.7z"/>
	<path class="st0" d="M58,38.7c-10.7,0-19.3-8.6-19.3-19.3H58V38.7z"/>
	<path class="st0" d="M38.7,0C28,0,19.3,8.7,19.3,19.3h19.3V0z"/>
	<path class="st0" d="M19.3,38.7C8.7,38.7,0,30,0,19.3h19.3V38.7z"/>
	<path class="st0" d="M19.3,38.7c10.7,0,19.3,8.7,19.3,19.3H19.3V38.7z"/>
	<path class="st0" d="M113.7,29.7c0,1.5,0.6,2.6,1.8,3.4c1.2,0.8,3.5,1.6,7,2.5c4.1,1,7.1,2.3,8.9,3.9c2,1.7,3,4.1,3,7.1
		c0,3.4-1.2,6.2-3.7,8.1c-2.4,2-5.6,3-9.6,3c-5.9,0-11.1-2-15.5-5.9l3.9-4.7c3.7,3.2,7.6,4.8,11.7,4.8c2,0,3.6-0.4,4.8-1.3
		c1.2-0.8,1.8-2,1.8-3.5c0-1.4-0.5-2.5-1.6-3.3c-1.2-0.9-3.5-1.7-6.8-2.4c-4.3-1-7.4-2.2-9.1-3.7c-2.2-1.7-3.2-4.2-3.2-7.5
		c0-3.2,1.2-5.8,3.6-7.8c2.4-2,5.4-3,9.1-3c5.1,0,9.6,1.6,13.5,4.7l-3.5,4.9c-3.4-2.5-6.8-3.8-10.1-3.8c-1.9,0-3.4,0.4-4.4,1.3
		C114.2,27.4,113.7,28.4,113.7,29.7"/>
	<path class="st0" d="M182.6,38.5c0,5.3-1.8,9.9-5.5,13.6c-3.7,3.8-8.3,5.6-14,5.6c-5.6,0-10.3-1.9-13.9-5.6
		c-3.6-3.7-5.5-8.2-5.5-13.6c0-5.3,1.8-9.9,5.5-13.6c3.7-3.8,8.3-5.6,14-5.6c5.6,0,10.3,1.9,13.9,5.6
		C180.8,28.7,182.6,33.2,182.6,38.5 M175.8,38.6c0-3.7-1.2-6.8-3.6-9.4c-2.4-2.6-5.4-3.9-9.1-3.9c-3.6,0-6.6,1.3-9,3.8
		c-2.4,2.5-3.5,5.7-3.5,9.3c0,3.7,1.2,6.8,3.6,9.4c2.4,2.6,5.4,3.9,9.1,3.9c3.6,0,6.6-1.3,9-3.8C174.6,45.4,175.8,42.3,175.8,38.6"
		/>
	<path class="st0" d="M224.4,57.2h-7.7l-9.1-13h-8.2v13h-6.5V20h16.6c4.3,0,7.7,1.1,10.1,3.2c2.5,2.1,3.7,5,3.7,8.6
		c0,5.9-3,9.7-8.9,11.3L224.4,57.2z M216.6,32.2c0-4.1-2.6-6.2-7.7-6.2h-9.5v12.5h9.6c2.3,0,4.2-0.6,5.6-1.7
		C215.9,35.6,216.6,34.1,216.6,32.2"/>
	<polygon class="st0" points="262.1,20 262.1,25.8 241.1,25.8 241.1,35.5 259.7,35.5 259.7,41.4 241.1,41.4 241.1,51.3 262.4,51.3 
		262.4,57.2 234.5,57.2 234.5,20 	"/>
	<polygon class="st0" points="299.4,45.7 299.4,20 305.8,20 305.8,57.2 300.3,57.2 279.8,30.7 279.8,57.2 273.4,57.2 273.4,20 
		279.5,20 	"/>
	<polygon class="st0" points="351.3,47.6 360.4,19.9 366,19.9 375.1,47.6 384,19.9 390.8,19.9 377.8,57.5 372.2,57.5 363.1,30.7 
		354,57.5 348.3,57.5 335.4,19.9 342.4,19.9 	"/>
	<polygon class="st0" points="427.7,20 427.7,25.8 406.7,25.8 406.7,35.5 425.3,35.5 425.3,41.4 406.7,41.4 406.7,51.3 428,51.3 
		428,57.2 400.1,57.2 400.1,20 	"/>
	<path class="st0" d="M446.6,29.7c0,1.5,0.6,2.6,1.8,3.4c1.2,0.8,3.5,1.6,7,2.5c4.1,1,7.1,2.3,8.9,3.9c2,1.7,3,4.1,3,7.1
		c0,3.4-1.2,6.2-3.7,8.1c-2.4,2-5.6,3-9.6,3c-5.9,0-11.1-2-15.5-5.9l3.9-4.7c3.7,3.2,7.6,4.8,11.7,4.8c2,0,3.6-0.4,4.8-1.3
		c1.2-0.8,1.8-2,1.8-3.5c0-1.4-0.5-2.5-1.6-3.3c-1.2-0.9-3.5-1.7-6.8-2.4c-4.3-1-7.4-2.2-9.1-3.7c-2.2-1.7-3.2-4.2-3.2-7.5
		c0-3.2,1.2-5.8,3.6-7.8c2.4-2,5.4-3,9.1-3c5.1,0,9.6,1.6,13.5,4.7l-3.5,4.9c-3.4-2.5-6.8-3.8-10.1-3.8c-1.9,0-3.4,0.4-4.4,1.3
		C447.1,27.4,446.6,28.4,446.6,29.7"/>
	<polygon class="st0" points="496,26.1 496,57.2 489.4,57.2 489.4,26.1 477.7,26.1 477.7,20 507.8,20 507.8,26.1 	"/>
</g>
</svg>
